<svg version="1.1" id="Layer_1" xmlns="http://www.w3.org/2000/svg" xmlns:xlink="http://www.w3.org/1999/xlink" x="0px" y="0px"
	 width="100%" viewBox="0 0 469 281" enable-background="new 0 0 469 281" xml:space="preserve">
<path fill="#FFFFFF" opacity="1.000000" stroke="none" 
	d="
M440.000000,282.000000 
	C293.333344,282.000000 147.166672,282.000000 1.000000,282.000000 
	C1.000000,188.333328 1.000000,94.666664 1.000000,1.000000 
	C157.333328,1.000000 313.666656,1.000000 470.000000,1.000000 
	C470.000000,94.666664 470.000000,188.333328 470.000000,282.000000 
	C460.166656,282.000000 450.333344,282.000000 440.000000,282.000000 
M62.616463,180.150375 
	C71.940887,180.150391 81.267502,180.033096 90.588676,180.207214 
	C94.400246,180.278427 96.829277,178.775574 98.645622,175.536499 
	C103.764587,166.407913 108.949028,157.314240 114.251831,148.291534 
	C116.063583,145.208847 116.015511,142.530182 114.198593,139.448181 
	C108.885597,130.435852 103.724487,121.332375 98.617424,112.201103 
	C96.809952,108.969414 94.365021,107.372543 90.586449,107.411354 
	C80.097549,107.519081 69.592674,107.154495 59.126808,107.657204 
	C56.531410,107.781853 53.110836,109.886887 51.698784,112.114395 
	C46.098595,120.948639 41.221165,130.237579 35.909481,139.260040 
	C34.006229,142.492920 33.988598,145.269974 35.936588,148.534729 
	C40.871483,156.805450 45.795090,165.105240 50.191204,173.666550 
	C52.756958,178.663284 56.125050,181.011002 62.616463,180.150375 
M242.683701,149.474579 
	C242.683701,153.593063 242.683701,157.711533 242.683701,162.160309 
	C244.567703,162.038330 245.974396,161.947250 247.960999,161.818634 
	C247.960999,157.339645 247.960999,153.176819 247.960999,148.751724 
	C255.195618,151.934372 255.493729,163.518784 265.966644,161.910233 
	C262.380524,157.436432 259.103210,153.347855 255.752945,149.168243 
	C263.205200,145.840881 265.359375,142.655716 264.146973,137.228378 
	C263.077759,132.441986 259.165497,130.166306 251.959518,130.148270 
	C249.013397,130.140900 246.067261,130.147049 242.683884,130.147049 
	C242.683884,136.567825 242.683884,142.525269 242.683701,149.474579 
M222.732239,155.328064 
	C222.732239,157.462509 222.732239,159.596970 222.732239,162.115234 
	C224.492981,162.013763 225.863632,161.934769 227.418320,161.845184 
	C227.418320,157.634109 227.421783,153.821777 227.415054,150.009445 
	C227.413879,149.344513 227.408112,148.675659 227.339584,148.015350 
	C226.764740,142.477219 222.685379,139.177048 217.414948,140.111603 
	C215.861069,140.387115 214.377701,141.060226 212.280487,141.739487 
	C212.280487,137.376923 212.280487,133.453796 212.280487,129.117752 
	C210.387650,129.252502 209.025696,129.349442 207.612976,129.450012 
	C207.612976,140.484985 207.612976,151.075089 207.612976,161.856140 
	C209.211899,161.856140 210.593994,161.856140 212.248993,161.856140 
	C212.248993,157.595566 211.772690,153.536575 212.454803,149.682617 
	C212.783844,147.823471 215.011734,145.536179 216.880402,144.889679 
	C219.813873,143.874786 221.969696,145.747131 222.401810,148.956268 
	C222.644196,150.756241 222.630661,152.590652 222.732239,155.328064 
M180.485245,147.440186 
	C177.583588,141.400879 173.927032,139.175201 168.464325,140.123291 
	C163.838409,140.926147 159.969284,145.170975 159.361847,150.109604 
	C158.800858,154.670624 161.488876,159.532806 165.697388,161.569534 
	C170.533157,163.909790 175.209747,162.923752 180.006729,157.540253 
	C177.336380,157.540253 175.682068,157.206650 174.224472,157.600693 
	C169.166016,158.968185 166.473770,157.896088 164.800842,153.072235 
	C170.168671,153.072235 175.381058,153.072235 180.761139,153.072235 
	C180.761139,151.118393 180.761139,149.662628 180.485245,147.440186 
M279.493988,162.818893 
	C282.198151,161.950348 284.902344,161.081818 287.606537,160.213287 
	C287.556000,159.462219 287.505493,158.711136 287.454987,157.960068 
	C286.001923,157.757843 284.407349,157.066452 283.120483,157.438766 
	C277.786469,158.981964 275.202850,158.055740 273.209290,153.097198 
	C277.788544,153.097198 282.244751,153.304337 286.655212,152.946747 
	C287.714111,152.860886 289.517609,150.831863 289.441162,149.811737 
	C289.123840,145.577805 286.997253,142.172668 282.844788,140.642746 
	C278.794800,139.150604 274.974304,139.902939 271.733765,142.847580 
	C268.354156,145.918594 267.204010,149.805664 268.314728,154.163864 
	C269.662720,159.453079 273.476624,162.043732 279.493988,162.818893 
M381.826996,160.869537 
	C388.384552,163.891876 391.639709,163.473679 397.176666,157.893372 
	C394.649597,157.721268 393.039917,157.208359 391.682098,157.590408 
	C386.383087,159.081329 383.219940,157.716476 382.438568,153.095139 
	C384.962036,153.095139 387.454193,153.095139 389.946381,153.095139 
	C392.566986,153.095139 395.187561,153.095139 397.754395,153.095139 
	C398.488586,144.981781 394.696747,140.105865 388.027161,140.024506 
	C382.931183,139.962326 379.338654,142.467758 377.570831,147.043152 
	C375.574768,152.209198 376.769867,156.854126 381.826996,160.869537 
M354.324371,140.329025 
	C353.839966,141.549942 352.969757,142.760773 352.937531,143.993500 
	C352.793823,149.487213 352.879944,154.987244 352.916534,160.484772 
	C352.919647,160.947723 353.171448,161.409027 353.396454,162.172089 
	C354.801300,162.023499 356.172577,161.878464 357.787292,161.707687 
	C357.787292,157.507233 357.774414,153.692505 357.791107,149.877914 
	C357.806030,146.467194 359.339996,144.567490 362.952728,144.667633 
	C366.586731,144.768372 367.871399,146.849945 367.842346,150.187454 
	C367.809082,154.010971 367.834656,157.835022 367.834656,162.107849 
	C369.637634,162.017181 371.170776,161.940094 372.923950,161.851929 
	C372.923950,157.415329 373.106720,153.422119 372.882874,149.451828 
	C372.508606,142.813751 367.477539,138.367157 362.098267,140.365768 
	C359.467621,141.343140 357.454590,141.089539 354.324371,140.329025 
M152.014816,138.657745 
	C152.336807,130.401047 159.201172,137.676178 161.899170,133.607986 
	C161.899170,133.180695 161.899170,131.783401 161.899170,130.159653 
	C154.300674,130.159653 147.006989,130.258835 139.717804,130.120361 
	C135.706390,130.044174 135.833817,131.932526 136.998978,135.016357 
	C140.233292,135.016357 143.334427,135.016357 146.977020,135.016357 
	C146.977020,144.217407 146.977020,153.093445 146.977020,162.200684 
	C148.949768,162.060745 150.355713,161.961014 152.014999,161.843307 
	C152.014999,154.200394 152.014999,146.913177 152.014816,138.657745 
M315.304840,155.644608 
	C315.304840,150.702606 315.304840,145.760605 315.304840,140.574615 
	C313.155396,140.574615 311.763367,140.574615 309.904510,140.574615 
	C309.904510,144.724716 309.803253,148.680664 309.927979,152.629456 
	C310.120209,158.713791 313.863159,162.695221 319.300476,162.808731 
	C324.861481,162.924789 328.807953,158.767166 328.995880,152.435440 
	C329.099457,148.945938 329.016235,145.450150 328.967377,141.957870 
	C328.961090,141.507294 328.654633,141.060913 328.375916,140.314590 
	C326.983002,140.427963 325.599854,140.540527 324.379883,140.639816 
	C324.204651,141.224808 324.119293,141.379669 324.117279,141.535599 
	C324.072205,145.025879 324.063751,148.516846 323.992523,152.006531 
	C323.869446,158.032959 321.093079,159.495712 315.304840,155.644608 
M433.566223,150.950500 
	C430.522827,149.559845 427.479431,148.169205 424.600494,146.853683 
	C427.369415,140.772614 433.197876,149.361420 435.955658,141.767746 
	C432.199371,141.161713 428.800415,139.811768 425.774170,140.395203 
	C423.606873,140.813049 420.721649,143.635498 420.404816,145.725891 
	C420.112854,147.651962 422.667175,150.156082 424.282867,152.150269 
	C424.901520,152.913818 426.531372,152.767334 427.454956,153.396118 
	C428.793762,154.307587 429.909790,155.546295 431.120850,156.645401 
	C429.512939,157.117584 427.927460,157.720627 426.286804,158.002045 
	C425.559174,158.126892 424.729706,157.455933 423.929352,157.402527 
	C422.355042,157.297501 420.768799,157.371613 419.187469,157.371613 
	C419.064240,158.114243 418.941010,158.856873 418.817810,159.599503 
	C421.635498,160.675140 424.461273,162.603699 427.268555,162.577179 
	C429.873444,162.552567 433.358521,161.067535 434.766113,159.047806 
	C435.881134,157.447830 434.437714,154.064865 433.566223,150.950500 
M291.226654,143.420700 
	C292.875885,144.177551 294.525146,144.934387 296.665405,145.916565 
	C296.665405,150.850204 296.665405,156.271500 296.665405,161.897369 
	C298.304596,161.897369 299.566895,161.897369 301.165131,161.897369 
	C301.165131,156.275330 301.165131,150.851852 301.165131,145.339890 
	C303.204071,144.995590 304.931305,144.703918 306.482391,144.442001 
	C308.219513,138.916580 303.460419,140.975006 301.179199,139.564026 
	C301.179199,136.993423 301.179199,134.245499 301.179199,131.369415 
	C299.507812,131.369415 298.251038,131.369415 296.865906,131.369415 
	C296.716553,134.360016 296.578888,137.117233 296.507812,138.540619 
	C294.137329,140.336380 292.666626,141.450516 291.226654,143.420700 
M193.003799,144.957458 
	C194.956482,145.112823 196.913818,145.427902 198.860352,145.371399 
	C200.332169,145.328674 201.790222,144.811325 204.082001,144.332169 
	C197.482544,138.707367 190.988983,138.884247 186.636246,143.766190 
	C182.605606,148.286835 182.861923,155.294662 187.211777,159.501953 
	C191.874527,164.011948 197.953735,163.864914 204.098236,158.084152 
	C201.710037,157.723495 200.054016,157.001160 198.678482,157.358490 
	C195.219467,158.257019 191.787048,158.738968 189.881042,155.182220 
	C187.911545,151.507050 188.246140,147.783295 193.003799,144.957458 
M403.147369,140.695572 
	C403.147369,147.721756 403.147369,154.747925 403.147369,161.873276 
	C404.433350,161.873276 405.699341,161.873276 407.250458,161.873276 
	C407.250458,158.011154 407.241272,154.377914 407.252869,150.744751 
	C407.266266,146.535583 408.906708,144.222061 413.601776,144.627655 
	C415.080597,144.755402 416.668182,143.624222 418.205994,143.069229 
	C418.119080,142.459778 418.032166,141.850327 417.945282,141.240860 
	C415.962738,140.850067 413.991821,140.224609 411.994843,140.126038 
	C409.310608,139.993561 406.606323,140.267776 403.147369,140.695572 
M334.690582,161.909988 
	C336.085785,161.909988 337.481018,161.909988 339.089996,161.909988 
	C339.089996,157.612305 339.089752,153.802719 339.090088,149.993134 
	C339.090424,146.292252 340.834839,144.614258 344.636230,144.617722 
	C346.366974,144.619308 348.098602,143.680481 349.829803,143.168198 
	C349.723938,142.473175 349.618042,141.778152 349.512177,141.083130 
	C344.547699,141.083130 339.583221,141.083130 334.144836,141.083130 
	C334.144836,147.576416 334.144836,154.356628 334.690582,161.909988 
z"/>
<path fill="#821E8A" opacity="1.000000" stroke="none" 
	d="
M62.139271,180.150421 
	C56.125050,181.011002 52.756958,178.663284 50.191204,173.666550 
	C45.795090,165.105240 40.871483,156.805450 35.936588,148.534729 
	C33.988598,145.269974 34.006229,142.492920 35.909481,139.260040 
	C41.221165,130.237579 46.098595,120.948639 51.698784,112.114395 
	C53.110836,109.886887 56.531410,107.781853 59.126808,107.657204 
	C69.592674,107.154495 80.097549,107.519081 90.586449,107.411354 
	C94.365021,107.372543 96.809952,108.969414 98.617424,112.201103 
	C103.724487,121.332375 108.885597,130.435852 114.198593,139.448181 
	C116.015511,142.530182 116.063583,145.208847 114.251831,148.291534 
	C108.949028,157.314240 103.764587,166.407913 98.645622,175.536499 
	C96.829277,178.775574 94.400246,180.278427 90.588676,180.207214 
	C81.267502,180.033096 71.940887,180.150391 62.139271,180.150421 
M89.978256,162.439651 
	C91.298683,162.337936 92.619110,162.236206 94.436218,162.096237 
	C92.631172,159.479462 91.319839,157.565002 89.994225,155.660477 
	C88.688171,153.784088 87.367668,151.917740 86.045074,150.034988 
	C93.441917,145.488678 95.920876,140.649033 94.200531,134.509705 
	C92.471962,128.341080 87.323296,125.163330 79.004250,125.150078 
	C72.852470,125.140274 66.691025,124.957809 60.554897,125.268059 
	C58.778595,125.357864 57.074940,126.884354 55.337982,127.752235 
	C57.028633,128.593567 58.653511,129.644043 60.432785,130.203568 
	C61.643387,130.584259 63.070175,130.276352 64.400291,130.278351 
	C70.219437,130.287064 76.045692,130.122986 81.855453,130.361130 
	C86.416199,130.548065 89.747246,134.023453 89.641815,137.889938 
	C89.530128,141.985794 86.328239,144.795044 81.567398,144.933014 
	C79.972801,144.979233 78.375740,144.940338 75.472878,144.940338 
	C80.537430,151.342346 84.892578,156.847610 89.978256,162.439651 
M76.614746,140.224152 
	C78.279282,140.218399 80.019394,140.509140 81.583763,140.110382 
	C82.774109,139.806976 83.741203,138.627762 84.807625,137.838211 
	C83.829659,136.910522 82.873627,135.206650 81.870247,135.178299 
	C74.053230,134.957428 66.224213,134.957779 58.407257,135.181488 
	C57.362144,135.211395 56.363792,136.875473 55.343788,137.782776 
	C56.399712,138.589935 57.386738,139.952576 58.525265,140.093796 
	C61.272099,140.434509 64.089760,140.204269 67.452988,140.204269 
	C67.452988,147.817078 67.452988,154.886353 67.452988,162.477707 
	C69.596062,162.329163 71.122353,162.223373 72.805168,162.106720 
	C72.805168,155.579544 72.652893,149.586609 72.935883,143.614319 
	C72.991325,142.444122 74.731895,141.353806 76.614746,140.224152 
z"/>
<path fill="#3B464C" opacity="1.000000" stroke="none" 
	d="
M242.683792,148.978653 
	C242.683884,142.525269 242.683884,136.567825 242.683884,130.147049 
	C246.067261,130.147049 249.013397,130.140900 251.959518,130.148270 
	C259.165497,130.166306 263.077759,132.441986 264.146973,137.228378 
	C265.359375,142.655716 263.205200,145.840881 255.752945,149.168243 
	C259.103210,153.347855 262.380524,157.436432 265.966644,161.910233 
	C255.493729,163.518784 255.195618,151.934372 247.960999,148.751724 
	C247.960999,153.176819 247.960999,157.339645 247.960999,161.818634 
	C245.974396,161.947250 244.567703,162.038330 242.683701,162.160309 
	C242.683701,157.711533 242.683701,153.593063 242.683792,148.978653 
M257.526703,143.343674 
	C257.785889,141.080856 258.831543,137.153442 258.169464,136.840652 
	C255.150345,135.414261 251.651459,135.003357 248.071167,134.168213 
	C248.071167,138.316772 248.071167,141.205505 248.071167,144.536667 
	C251.225967,144.280914 254.007248,144.055450 257.526703,143.343674 
z"/>
<path fill="#3D474D" opacity="1.000000" stroke="none" 
	d="
M222.732330,154.868805 
	C222.630661,152.590652 222.644196,150.756241 222.401810,148.956268 
	C221.969696,145.747131 219.813873,143.874786 216.880402,144.889679 
	C215.011734,145.536179 212.783844,147.823471 212.454803,149.682617 
	C211.772690,153.536575 212.248993,157.595566 212.248993,161.856140 
	C210.593994,161.856140 209.211899,161.856140 207.612976,161.856140 
	C207.612976,151.075089 207.612976,140.484985 207.612976,129.450012 
	C209.025696,129.349442 210.387650,129.252502 212.280487,129.117752 
	C212.280487,133.453796 212.280487,137.376923 212.280487,141.739487 
	C214.377701,141.060226 215.861069,140.387115 217.414948,140.111603 
	C222.685379,139.177048 226.764740,142.477219 227.339584,148.015350 
	C227.408112,148.675659 227.413879,149.344513 227.415054,150.009445 
	C227.421783,153.821777 227.418320,157.634109 227.418320,161.845184 
	C225.863632,161.934769 224.492981,162.013763 222.732239,162.115234 
	C222.732239,159.596970 222.732239,157.462509 222.732330,154.868805 
z"/>
<path fill="#374248" opacity="1.000000" stroke="none" 
	d="
M180.623199,147.823517 
	C180.761139,149.662628 180.761139,151.118393 180.761139,153.072235 
	C175.381058,153.072235 170.168671,153.072235 164.800842,153.072235 
	C166.473770,157.896088 169.166016,158.968185 174.224472,157.600693 
	C175.682068,157.206650 177.336380,157.540253 180.006729,157.540253 
	C175.209747,162.923752 170.533157,163.909790 165.697388,161.569534 
	C161.488876,159.532806 158.800858,154.670624 159.361847,150.109604 
	C159.969284,145.170975 163.838409,140.926147 168.464325,140.123291 
	C173.927032,139.175201 177.583588,141.400879 180.623199,147.823517 
M168.969620,144.667267 
	C167.476685,145.737473 165.983765,146.807663 164.490829,147.877853 
	C164.744095,148.148911 164.997360,148.419983 165.250626,148.691040 
	C168.759338,148.691040 172.268066,148.691040 175.776779,148.691040 
	C175.937744,148.147385 176.098694,147.603714 176.259644,147.060059 
	C174.078690,146.207397 171.897736,145.354736 168.969620,144.667267 
z"/>
<path fill="#374248" opacity="1.000000" stroke="none" 
	d="
M279.098572,162.812897 
	C273.476624,162.043732 269.662720,159.453079 268.314728,154.163864 
	C267.204010,149.805664 268.354156,145.918594 271.733765,142.847580 
	C274.974304,139.902939 278.794800,139.150604 282.844788,140.642746 
	C286.997253,142.172668 289.123840,145.577805 289.441162,149.811737 
	C289.517609,150.831863 287.714111,152.860886 286.655212,152.946747 
	C282.244751,153.304337 277.788544,153.097198 273.209290,153.097198 
	C275.202850,158.055740 277.786469,158.981964 283.120483,157.438766 
	C284.407349,157.066452 286.001923,157.757843 287.454987,157.960068 
	C287.505493,158.711136 287.556000,159.462219 287.606537,160.213287 
	C284.902344,161.081818 282.198151,161.950348 279.098572,162.812897 
M280.407227,149.078064 
	C281.643463,148.989990 282.879730,148.901932 284.115967,148.813873 
	C284.303894,148.279724 284.491821,147.745590 284.679749,147.211441 
	C282.737427,146.293304 280.746674,144.562790 278.865784,144.674942 
	C276.792755,144.798569 274.820618,146.614258 272.804535,147.692886 
	C273.044220,148.154572 273.283875,148.616272 273.523560,149.077972 
	C275.517548,149.077972 277.511505,149.077972 280.407227,149.078064 
z"/>
<path fill="#364147" opacity="1.000000" stroke="none" 
	d="
M381.515564,160.659790 
	C376.769867,156.854126 375.574768,152.209198 377.570831,147.043152 
	C379.338654,142.467758 382.931183,139.962326 388.027161,140.024506 
	C394.696747,140.105865 398.488586,144.981781 397.754395,153.095139 
	C395.187561,153.095139 392.566986,153.095139 389.946381,153.095139 
	C387.454193,153.095139 384.962036,153.095139 382.438568,153.095139 
	C383.219940,157.716476 386.383087,159.081329 391.682098,157.590408 
	C393.039917,157.208359 394.649597,157.721268 397.176666,157.893372 
	C391.639709,163.473679 388.384552,163.891876 381.515564,160.659790 
M389.857361,144.799255 
	C386.329010,144.107925 383.393127,144.566345 381.989258,148.755249 
	C385.854980,148.755249 389.367554,148.755249 394.068756,148.755249 
	C392.464142,147.011795 391.535645,146.002991 389.857361,144.799255 
z"/>
<path fill="#3A444B" opacity="1.000000" stroke="none" 
	d="
M354.734924,140.314835 
	C357.454590,141.089539 359.467621,141.343140 362.098267,140.365768 
	C367.477539,138.367157 372.508606,142.813751 372.882874,149.451828 
	C373.106720,153.422119 372.923950,157.415329 372.923950,161.851929 
	C371.170776,161.940094 369.637634,162.017181 367.834656,162.107849 
	C367.834656,157.835022 367.809082,154.010971 367.842346,150.187454 
	C367.871399,146.849945 366.586731,144.768372 362.952728,144.667633 
	C359.339996,144.567490 357.806030,146.467194 357.791107,149.877914 
	C357.774414,153.692505 357.787292,157.507233 357.787292,161.707687 
	C356.172577,161.878464 354.801300,162.023499 353.396454,162.172089 
	C353.171448,161.409027 352.919647,160.947723 352.916534,160.484772 
	C352.879944,154.987244 352.793823,149.487213 352.937531,143.993500 
	C352.969757,142.760773 353.839966,141.549942 354.734924,140.314835 
z"/>
<path fill="#384249" opacity="1.000000" stroke="none" 
	d="
M152.014908,139.141861 
	C152.014999,146.913177 152.014999,154.200394 152.014999,161.843307 
	C150.355713,161.961014 148.949768,162.060745 146.977020,162.200684 
	C146.977020,153.093445 146.977020,144.217407 146.977020,135.016357 
	C143.334427,135.016357 140.233292,135.016357 136.998978,135.016357 
	C135.833817,131.932526 135.706390,130.044174 139.717804,130.120361 
	C147.006989,130.258835 154.300674,130.159653 161.899170,130.159653 
	C161.899170,131.783401 161.899170,133.180695 161.899170,133.607986 
	C159.201172,137.676178 152.336807,130.401047 152.014908,139.141861 
z"/>
<path fill="#374148" opacity="1.000000" stroke="none" 
	d="
M315.541199,156.004272 
	C321.093079,159.495712 323.869446,158.032959 323.992523,152.006531 
	C324.063751,148.516846 324.072205,145.025879 324.117279,141.535599 
	C324.119293,141.379669 324.204651,141.224808 324.379883,140.639816 
	C325.599854,140.540527 326.983002,140.427963 328.375916,140.314590 
	C328.654633,141.060913 328.961090,141.507294 328.967377,141.957870 
	C329.016235,145.450150 329.099457,148.945938 328.995880,152.435440 
	C328.807953,158.767166 324.861481,162.924789 319.300476,162.808731 
	C313.863159,162.695221 310.120209,158.713791 309.927979,152.629456 
	C309.803253,148.680664 309.904510,144.724716 309.904510,140.574615 
	C311.763367,140.574615 313.155396,140.574615 315.304840,140.574615 
	C315.304840,145.760605 315.304840,150.702606 315.541199,156.004272 
z"/>
<path fill="#3D474D" opacity="1.000000" stroke="none" 
	d="
M433.848297,151.212067 
	C434.437714,154.064865 435.881134,157.447830 434.766113,159.047806 
	C433.358521,161.067535 429.873444,162.552567 427.268555,162.577179 
	C424.461273,162.603699 421.635498,160.675140 418.817810,159.599503 
	C418.941010,158.856873 419.064240,158.114243 419.187469,157.371613 
	C420.768799,157.371613 422.355042,157.297501 423.929352,157.402527 
	C424.729706,157.455933 425.559174,158.126892 426.286804,158.002045 
	C427.927460,157.720627 429.512939,157.117584 431.120850,156.645416 
	C429.909790,155.546295 428.793762,154.307587 427.454956,153.396118 
	C426.531372,152.767334 424.901520,152.913818 424.282867,152.150269 
	C422.667175,150.156082 420.112854,147.651962 420.404816,145.725891 
	C420.721649,143.635498 423.606873,140.813049 425.774170,140.395203 
	C428.800415,139.811768 432.199371,141.161713 435.955658,141.767746 
	C433.197876,149.361420 427.369415,140.772614 424.600494,146.853683 
	C427.479431,148.169205 430.522827,149.559845 433.848297,151.212067 
z"/>
<path fill="#384249" opacity="1.000000" stroke="none" 
	d="
M291.211304,142.992676 
	C292.666626,141.450516 294.137329,140.336380 296.507812,138.540619 
	C296.578888,137.117233 296.716553,134.360016 296.865906,131.369415 
	C298.251038,131.369415 299.507812,131.369415 301.179199,131.369415 
	C301.179199,134.245499 301.179199,136.993423 301.179199,139.564026 
	C303.460419,140.975006 308.219513,138.916580 306.482391,144.442001 
	C304.931305,144.703918 303.204071,144.995590 301.165131,145.339890 
	C301.165131,150.851852 301.165131,156.275330 301.165131,161.897369 
	C299.566895,161.897369 298.304596,161.897369 296.665405,161.897369 
	C296.665405,156.271500 296.665405,150.850204 296.665405,145.916565 
	C294.525146,144.934387 292.875885,144.177551 291.211304,142.992676 
z"/>
<path fill="#39444A" opacity="1.000000" stroke="none" 
	d="
M192.595459,145.070740 
	C188.246140,147.783295 187.911545,151.507050 189.881042,155.182220 
	C191.787048,158.738968 195.219467,158.257019 198.678482,157.358490 
	C200.054016,157.001160 201.710037,157.723495 204.098236,158.084152 
	C197.953735,163.864914 191.874527,164.011948 187.211777,159.501953 
	C182.861923,155.294662 182.605606,148.286835 186.636246,143.766190 
	C190.988983,138.884247 197.482544,138.707367 204.082001,144.332169 
	C201.790222,144.811325 200.332169,145.328674 198.860352,145.371399 
	C196.913818,145.427902 194.956482,145.112823 192.595459,145.070740 
z"/>
<path fill="#354047" opacity="1.000000" stroke="none" 
	d="
M403.528992,140.531494 
	C406.606323,140.267776 409.310608,139.993561 411.994843,140.126038 
	C413.991821,140.224609 415.962738,140.850067 417.945282,141.240860 
	C418.032166,141.850327 418.119080,142.459778 418.205994,143.069229 
	C416.668182,143.624222 415.080597,144.755402 413.601776,144.627655 
	C408.906708,144.222061 407.266266,146.535583 407.252869,150.744751 
	C407.241272,154.377914 407.250458,158.011154 407.250458,161.873276 
	C405.699341,161.873276 404.433350,161.873276 403.147369,161.873276 
	C403.147369,154.747925 403.147369,147.721756 403.528992,140.531494 
z"/>
<path fill="#3A444B" opacity="1.000000" stroke="none" 
	d="
M334.417725,161.523422 
	C334.144836,154.356628 334.144836,147.576416 334.144836,141.083130 
	C339.583221,141.083130 344.547699,141.083130 349.512177,141.083130 
	C349.618042,141.778152 349.723938,142.473175 349.829803,143.168198 
	C348.098602,143.680481 346.366974,144.619308 344.636230,144.617722 
	C340.834839,144.614258 339.090424,146.292252 339.090088,149.993134 
	C339.089752,153.802719 339.089996,157.612305 339.089996,161.909988 
	C337.481018,161.909988 336.085785,161.909988 334.417725,161.523422 
z"/>
<path fill="#F9F5FA" opacity="1.000000" stroke="none" 
	d="
M89.612991,162.396271 
	C84.892578,156.847610 80.537430,151.342346 75.472878,144.940338 
	C78.375740,144.940338 79.972801,144.979233 81.567398,144.933014 
	C86.328239,144.795044 89.530128,141.985794 89.641815,137.889938 
	C89.747246,134.023453 86.416199,130.548065 81.855453,130.361130 
	C76.045692,130.122986 70.219437,130.287064 64.400291,130.278351 
	C63.070175,130.276352 61.643387,130.584259 60.432785,130.203568 
	C58.653511,129.644043 57.028633,128.593567 55.337982,127.752228 
	C57.074940,126.884354 58.778595,125.357864 60.554897,125.268059 
	C66.691025,124.957809 72.852470,125.140274 79.004250,125.150078 
	C87.323296,125.163330 92.471962,128.341080 94.200531,134.509705 
	C95.920876,140.649033 93.441917,145.488678 86.045074,150.034988 
	C87.367668,151.917740 88.688171,153.784088 89.994225,155.660477 
	C91.319839,157.565002 92.631172,159.479462 94.436218,162.096237 
	C92.619110,162.236206 91.298683,162.337936 89.612991,162.396271 
z"/>
<path fill="#F9F4F9" opacity="1.000000" stroke="none" 
	d="
M76.154999,140.225403 
	C74.731895,141.353806 72.991325,142.444122 72.935883,143.614319 
	C72.652893,149.586609 72.805168,155.579544 72.805168,162.106720 
	C71.122353,162.223373 69.596062,162.329163 67.452988,162.477707 
	C67.452988,154.886353 67.452988,147.817078 67.452988,140.204269 
	C64.089760,140.204269 61.272099,140.434509 58.525265,140.093796 
	C57.386738,139.952576 56.399712,138.589935 55.343788,137.782776 
	C56.363792,136.875473 57.362144,135.211395 58.407257,135.181488 
	C66.224213,134.957779 74.053230,134.957428 81.870247,135.178299 
	C82.873627,135.206650 83.829659,136.910522 84.807625,137.838211 
	C83.741203,138.627762 82.774109,139.806976 81.583763,140.110382 
	C80.019394,140.509140 78.279282,140.218399 76.154999,140.225403 
z"/>
<path fill="#FDFDFE" opacity="1.000000" stroke="none" 
	d="
M257.157623,143.586823 
	C254.007248,144.055450 251.225967,144.280914 248.071167,144.536667 
	C248.071167,141.205505 248.071167,138.316772 248.071167,134.168213 
	C251.651459,135.003357 255.150345,135.414261 258.169464,136.840652 
	C258.831543,137.153442 257.785889,141.080856 257.157623,143.586823 
z"/>
<path fill="#F2F3F3" opacity="1.000000" stroke="none" 
	d="
M169.343201,144.584686 
	C171.897736,145.354736 174.078690,146.207397 176.259644,147.060059 
	C176.098694,147.603714 175.937744,148.147385 175.776779,148.691040 
	C172.268066,148.691040 168.759338,148.691040 165.250626,148.691040 
	C164.997360,148.419983 164.744095,148.148911 164.490829,147.877853 
	C165.983765,146.807663 167.476685,145.737473 169.343201,144.584686 
z"/>
<path fill="#EEEFEF" opacity="1.000000" stroke="none" 
	d="
M279.956360,149.078018 
	C277.511505,149.077972 275.517548,149.077972 273.523560,149.077972 
	C273.283875,148.616272 273.044220,148.154572 272.804535,147.692886 
	C274.820618,146.614258 276.792755,144.798569 278.865784,144.674942 
	C280.746674,144.562790 282.737427,146.293304 284.679749,147.211441 
	C284.491821,147.745590 284.303894,148.279724 284.115967,148.813873 
	C282.879730,148.901932 281.643463,148.989990 279.956360,149.078018 
z"/>
<path fill="#F2F3F3" opacity="1.000000" stroke="none" 
	d="
M390.232269,144.896729 
	C391.535645,146.002991 392.464142,147.011795 394.068756,148.755249 
	C389.367554,148.755249 385.854980,148.755249 381.989258,148.755249 
	C383.393127,144.566345 386.329010,144.107925 390.232269,144.896729 
z"/>
</svg>